PathFileType	4	(X/Y/Z)	S15T1V11.trc
DataRate	CameraRate	NumFrames	NumMarkers	Units	OrigDataRate	OrigDataStartFrame	OrigNumFrames
200	200	5	39	mm	200	87	99
Frame#	Time	LSHO			RSHO			LICST			RICST			LASIS			RASIS			LTROC			RTROC			SACR			LTH1			LTH2			LTH3			LTH4			RTH1			RTH2			RTH3			RTH4			LLEP			RLEP			LSK1			LSK2			LSK3			LSK4			RSK1			RSK2			RSK3			RSK4			LLME			RLME			LTOE			LHM5			LHEEL			RTOE			RHM5			RHEEL			RFT1			RFT2			LFT1			LFT2		
		X1	Y1	Z1	X2	Y2	Z2	X3	Y3	Z3	X4	Y4	Z4	X5	Y5	Z5	X6	Y6	Z6	X7	Y7	Z7	X8	Y8	Z8	X9	Y9	Z9	X10	Y10	Z10	X11	Y11	Z11	X12	Y12	Z12	X13	Y13	Z13	X14	Y14	Z14	X15	Y15	Z15	X16	Y16	Z16	X17	Y17	Z17	X18	Y18	Z18	X19	Y19	Z19	X20	Y20	Z20	X21	Y21	Z21	X22	Y22	Z22	X23	Y23	Z23	X24	Y24	Z24	X25	Y25	Z25	X26	Y26	Z26	X27	Y27	Z27	X28	Y28	Z28	X29	Y29	Z29	X30	Y30	Z30	X31	Y31	Z31	X32	Y32	Z32	X33	Y33	Z33	X34	Y34	Z34	X35	Y35	Z35	X36	Y36	Z36	X37	Y37	Z37	X38	Y38	Z38	X39	Y39	Z39

87	0.430000	993.921133	1415.569138	-413.366470	1101.701222	1440.403142	-114.457356	1093.990114	1033.914104	-411.681172	1112.065443	1020.798416	-99.468629	1145.594835	984.470898	-396.171162	1154.472167	963.545104	-118.612382	1018.041332	937.499442	-406.694895	1024.292158	919.401391	-98.687221	993.847780	1023.752610	-258.168286	1210.393180	725.762480	-416.599774	1134.613453	692.446545	-402.191136	1248.772428	632.958008	-402.799090	1180.037326	600.390769	-387.229203	1043.990905	699.799092	-95.833971	968.241090	725.448934	-100.983021	1014.455621	606.323310	-108.435856	937.880840	630.201060	-115.022946	1249.506429	507.630895	-388.531415	912.362804	510.042344	-113.666587	1295.215274	406.797395	-383.524041	1212.309143	395.519957	-373.648110	1307.574870	306.641839	-364.125174	1228.040324	299.551200	-348.842715	865.021264	407.695686	-126.065136	812.850664	467.181732	-109.539161	793.406196	338.688116	-139.391815	734.357226	400.483992	-127.762573	1318.632614	132.011903	-321.283075	621.011298	259.345011	-161.148435	1493.250021	160.838659	-286.520667	1450.990144	112.621059	-338.455494	1267.415014	92.225373	-256.682818	689.685584	86.952132	-190.996649	633.557510	122.594884	-136.349185	592.457230	301.032862	-220.083266	577.983362	273.750922	-254.376464	563.870782	285.384876	-198.669280	1287.307405	79.955679	-225.710990	1280.475969	62.563159	-278.222602
88	0.435000	1010.196374	1414.345640	-414.108019	1116.717170	1439.728152	-114.829294	1110.779156	1032.513533	-411.827149	1128.488025	1020.381542	-99.467956	1162.339713	982.930503	-396.397251	1171.039810	963.301985	-118.563183	1034.492772	936.009094	-406.099891	1041.004430	918.865431	-97.935607	1010.588325	1022.761588	-258.157245	1225.205733	723.474983	-417.515692	1149.282987	690.700014	-402.177702	1263.100999	630.497092	-403.623444	1194.271164	598.400470	-387.145144	1061.010734	699.192241	-94.948803	985.215918	724.621973	-100.305673	1031.712719	605.598833	-106.855666	955.141923	629.245955	-113.920222	1263.775317	505.182049	-388.478555	929.577104	509.595025	-111.856175	1310.626863	404.837241	-383.290564	1227.915638	392.751781	-372.566889	1324.159077	304.872988	-363.520904	1244.837311	297.019119	-347.506370	880.453553	408.092116	-124.225825	829.323583	468.726406	-108.635890	807.652568	340.459003	-138.004139	749.740076	403.449703	-127.246804	1337.513497	130.453821	-319.946620	634.105465	264.660408	-161.228171	1511.998845	160.762476	-286.398912	1469.739243	112.120734	-337.819207	1287.119195	90.891061	-254.784643	700.414932	90.577903	-187.716600	644.390070	128.165667	-134.315689	607.113415	306.176804	-220.891734	592.407494	278.657200	-254.899327	578.055346	291.289238	-199.527453	1307.189879	78.845233	-223.850960	1300.116010	61.247407	-276.246585
89	0.440000	1026.504835	1412.810728	-414.889097	1131.676971	1438.737771	-115.135832	1127.519914	1030.838055	-412.011078	1144.851348	1019.652288	-99.465483	1179.039231	981.140035	-396.664838	1187.551719	962.750714	-118.546133	1050.888111	934.274092	-405.525074	1057.695059	917.989034	-97.216406	1027.258130	1021.508168	-258.155419	1240.050199	721.049634	-418.413489	1164.015200	688.759874	-402.171422	1277.526122	627.927493	-404.419045	1208.634344	596.262856	-387.044189	1078.182071	698.259117	-93.982928	1002.312175	723.381517	-99.552433	1049.222625	604.510405	-105.142941	972.631699	627.835555	-112.695607	1278.132022	502.633956	-388.409339	947.153559	508.712681	-109.906691	1325.825119	402.693778	-383.047325	1243.311187	390.047064	-371.495481	1340.225178	302.923395	-362.923774	1261.124654	294.540460	-346.198094	896.262029	408.095863	-122.281035	846.209801	469.869144	-107.638202	822.303062	341.877017	-136.581571	765.557162	406.053019	-126.690458	1355.279231	128.820094	-318.692555	647.641248	269.700928	-161.356352	1529.634231	159.939639	-286.463680	1487.160850	111.213155	-337.366498	1305.619332	89.729428	-252.931790	711.807481	94.245903	-184.273222	655.846370	133.679462	-132.207952	622.128844	310.838721	-221.834552	607.281782	283.027690	-255.514187	592.648385	296.695875	-200.525821	1325.800091	77.768577	-222.078292	1318.376987	60.094217	-274.348730
90	0.445000	1042.846082	1410.967187	-415.709388	1146.584457	1437.437950	-115.378817	1144.205170	1028.905921	-412.229584	1161.151842	1018.610362	-99.461268	1195.687864	979.119316	-396.970696	1204.001841	961.888363	-118.561970	1067.225918	932.313809	-404.979993	1074.356028	916.772506	-96.544259	1043.848918	1020.000897	-258.163321	1254.938122	718.510427	-419.285696	1178.821179	686.646088	-402.178958	1292.060412	625.271856	-405.183202	1223.138734	593.997273	-386.936272	1095.494640	697.006037	-92.939377	1019.521273	721.737263	-98.724884	1066.972217	603.067059	-103.305079	990.337801	625.982098	-111.351453	1292.593331	500.005311	-388.330657	965.080067	507.406892	-107.824062	1340.827439	400.377730	-382.795559	1258.505222	387.415473	-370.458795	1355.787885	300.796672	-362.334641	1276.908494	292.118327	-344.938493	912.445591	407.715372	-120.233657	863.501655	470.609638	-106.540992	837.365242	342.940656	-135.120584	781.808778	408.284871	-126.084036	1371.929256	127.103101	-317.522349	661.636696	274.441233	-161.513854	1546.163185	158.372243	-286.681890	1503.266869	109.896924	-337.073651	1322.904327	88.726602	-251.135630	723.876340	97.906810	-180.683673	667.940604	139.083794	-130.028760	637.514842	315.011666	-222.883398	622.608509	286.859080	-256.195520	607.657973	301.594140	-201.635904	1343.125656	76.712374	-220.400624	1335.254147	59.087807	-272.539052
91	0.450000	1059.220772	1408.820234	-416.568547	1161.444025	1435.836936	-115.560523	1160.826542	1026.737010	-412.478631	1177.384298	1017.258116	-99.454940	1212.279112	976.889165	-397.311010	1220.383206	960.715011	-118.610249	1083.503780	930.148661	-404.473012	1090.978568	915.218527	-95.932865	1060.351497	1018.249963	-258.181025	1269.878601	715.880607	-420.126513	1193.708969	684.378878	-402.207557	1306.712877	622.551447	-405.915671	1237.792062	591.622323	-386.832767	1112.939740	695.442451	-91.822020	1036.836563	719.701831	-97.825228	1084.950279	601.281420	-101.351105	1008.250124	623.701372	-109.891414	1307.172331	497.313748	-388.250652	983.347125	505.692659	-105.616195	1355.649154	397.901250	-382.537721	1273.506585	384.866415	-369.481946	1370.861934	298.499777	-361.755286	1292.196456	289.757549	-343.748354	929.005535	406.961820	-118.088422	881.193428	470.950554	-105.340019	852.847934	343.651004	-133.618511	798.496172	410.138945	-125.417797	1387.468690	125.300739	-316.437322	676.109488	278.858026	-161.679906	1561.595655	156.078452	-287.019603	1518.076826	108.181191	-336.915560	1338.970321	87.870344	-249.407816	736.633958	101.511675	-176.967381	680.687000	144.327105	-127.781280	653.282783	318.693223	-224.006534	638.389176	290.153606	-256.915068	623.092333	305.977848	-202.825303	1359.162197	75.667945	-218.825013	1350.753052	58.214771	-270.827151
